<svg xmlns="http://www.w3.org/2000/svg" width="186" height="117.086" viewBox="0 0 186 117.086">
  <g id="Group_13" data-name="Group 13" transform="translate(-7.089 -4.452)">
    <g id="Group_12" data-name="Group 12" transform="translate(68.774 4.452)">
      <path id="Path_3" data-name="Path 3" d="M314.489,77.607s35.353-3,22.474-39.356c0,0-25.994,10.371-21.21,34.939,0,0,8.354-3.082,9.964-8.7C325.717,64.486,326.081,70.5,314.489,77.607Z" transform="translate(-277.194 -27.368)" fill="#b2a800"/>
      <path id="Path_4" data-name="Path 4" d="M223.392,80.081s18.553-26.232,8.722-49.927-30.094-25.7-30.094-25.7-15.74,52.982,20.945,61.435c0,0,2.485-16.113-1.27-22.9A44.011,44.011,0,0,1,223.392,80.081Z" transform="translate(-198.663 -4.452)" fill="#b2a800"/>
    </g>
    <text id="Zyrapp" transform="translate(7.089 108.538)" fill="#434014" font-size="62" font-family="BerlinSansFB-Reg, Berlin Sans FB"><tspan x="0" y="0">Zyrapp</tspan></text>
  </g>
</svg>
